<svg xmlns="http://www.w3.org/2000/svg" xmlns:xlink="http://www.w3.org/1999/xlink" viewBox="0 0 173.97 50.11">
  <defs>
    <style>
      .cls-1 {
        fill: #00abaa;
      }

      .cls-2 {
        fill: #059;
      }

      .cls-3 {
        fill: #f59d15;
      }

      .cls-10, .cls-4 {
        fill: none;
      }

      .cls-4 {
        stroke: #059;
        stroke-miterlimit: 10;
        stroke-width: 0.37px;
      }

      .cls-5 {
        fill: url(#linear-gradient);
      }

      .cls-6 {
        fill: url(#linear-gradient-2);
      }

      .cls-7 {
        fill: url(#linear-gradient-3);
      }

      .cls-8 {
        fill: url(#linear-gradient-4);
      }

      .cls-9 {
        fill: url(#linear-gradient-5);
      }
    </style>
    <linearGradient id="linear-gradient" x1="150.72" y1="35.7" x2="140.81" y2="22.46" gradientUnits="userSpaceOnUse">
      <stop offset="0" stop-color="#059"/>
      <stop offset="0.21" stop-color="#005b9c"/>
      <stop offset="0.48" stop-color="#006ba6"/>
      <stop offset="0.78" stop-color="#0085b6"/>
      <stop offset="1" stop-color="#009ec5"/>
    </linearGradient>
    <linearGradient id="linear-gradient-2" x1="158.78" y1="35.13" x2="152.29" y2="26.46" gradientUnits="userSpaceOnUse">
      <stop offset="0" stop-color="#f7ab50"/>
      <stop offset="1" stop-color="#f08100"/>
    </linearGradient>
    <linearGradient id="linear-gradient-3" x1="159.25" y1="28.94" x2="140.32" y2="23.27" gradientUnits="userSpaceOnUse">
      <stop offset="0" stop-color="#00abaa"/>
      <stop offset="1" stop-color="#63cccb"/>
    </linearGradient>
    <linearGradient id="linear-gradient-4" x1="139.13" y1="40.72" x2="125.95" y2="23.11" xlink:href="#linear-gradient"/>
    <linearGradient id="linear-gradient-5" x1="123.46" y1="22.64" x2="136.63" y2="22.64" xlink:href="#linear-gradient-2"/>
  </defs>
  <g id="Layer_2" data-name="Layer 2">
    <g id="Layer_1-2" data-name="Layer 1">
      <g>
        <g>
          <g>
            <g>
              <path class="cls-1" d="M0,20.52H10.28A52.4,52.4,0,0,0,29.6,39.83V50.11A47.43,47.43,0,0,1,0,20.52Z"/>
              <path class="cls-2" d="M29.6,20.52V39.83A52.4,52.4,0,0,1,10.28,20.52Z"/>
              <path class="cls-1" d="M29.6,20.52H10.28A52,52,0,0,1,4.85,7H16A13.57,13.57,0,0,1,29.6,20.52Z"/>
              <path class="cls-3" d="M43.16,34.08V45.26A51.6,51.6,0,0,1,29.6,39.83V20.52A13.56,13.56,0,0,1,43.16,34.08Z"/>
              <path class="cls-1" d="M29.49,7A18,18,0,0,0,43.16,20.62V7Z"/>
            </g>
            <path class="cls-2" d="M65.7,23.7V37.51H61.49V23.7H57V20.46H70.17V23.7ZM92.15,22a8.26,8.26,0,0,1,5-1.82c4.86,0,7.19,3.44,7.19,8.37,0,6.22-3.5,9.4-8.55,9.4s-7.72-3.18-7.72-10.51c0-6.09,1.38-10.29,3.5-12.25C94,13,94.75,13,97.6,12.29c1.75-.45,3.44-.71,4.09-1l1.55,3.5c-.84.52-2.4.84-5.51,1.49-3.57.72-5.19,2-5.58,5.71ZM96,34.53c2.79,0,3.83-2.27,3.83-5.51,0-2.92-.84-5.32-3.7-5.32a5.28,5.28,0,0,0-3.56,1.11,27.45,27.45,0,0,0-.13,4c0,3.5,1.1,5.77,3.56,5.77Zm-13.61,3-5.71-8v8H72.44v-17h4.28v7.46l5.06-7.46h4.67l-5.51,7.72,6.48,9.33Z"/>
          </g>
          <line class="cls-4" x1="113.72" y1="18.66" x2="113.72" y2="37.5"/>
          <g>
            <g>
              <path class="cls-5" d="M148.27,20.14c-2,0-3.3,2.5-3.27,7.81,0,3.21.44,5.39,1.29,6.6-1.87.09-3.64.24-5.31.44a13.3,13.3,0,0,1-.65-1.74C141.2,19.59,148.27,20.14,148.27,20.14Z"/>
              <path class="cls-6" d="M156.86,27.81a17.76,17.76,0,0,1-1.13,6.68l-.43,0c-1,0-1.92,0-2.84,0,1.74-1.39,3.51-4.23,4.15-9.92A20.73,20.73,0,0,1,156.86,27.81Z"/>
              <path class="cls-7" d="M156.61,24.51c-.64,5.69-2.41,8.53-4.15,9.92h-2.12c.77-1.25,1.17-3.43,1.17-6.55,0-5.06-1.09-7.74-3.24-7.74,0,0-7.07-.55-7.94,13.11a19.3,19.3,0,0,1-.71-5.3c0-6.61,2.81-11.85,8.73-11.85C153.35,16.1,155.86,19.75,156.61,24.51Z"/>
            </g>
            <path class="cls-8" d="M138.91,32.74a6,6,0,0,1-.57,2.62,35.32,35.32,0,0,0-11.19,3.56c-.3.16-.59.32-.88.5a10.87,10.87,0,0,1-3.51-1.3l1.09-4a12.49,12.49,0,0,0,5.31,1.41c2.78,0,4.19-1.34,4.19-3.06,0-2.26-2.25-3.28-4.61-3.28h-2.18c12.67-5,9.79-11.26,9.79-11.26a5.05,5.05,0,0,1,1.78,3.87c0,2.43-1.37,4.33-4.18,5.32v.07A5.68,5.68,0,0,1,138.91,32.74Z"/>
            <path class="cls-9" d="M126.56,29.18V25.35h2.07c1.8,0,4.08-.71,4.08-2.64,0-1.37-1.12-2.39-3.37-2.39a10.48,10.48,0,0,0-4.79,1.37l-1.09-3.87a14.33,14.33,0,0,1,7.07-1.72,8.72,8.72,0,0,1,5.82,1.82S139.23,24.22,126.56,29.18Z"/>
            <g>
              <path class="cls-2" d="M140.9,37.88c-.06,0-.12.06-.19.19a19.34,19.34,0,0,1-1.24,2.24.76.76,0,0,0-.1.15c-.33.59-.57.89-.72.89s-.32-.1-.32-.3a1.35,1.35,0,0,1,.39-.74,10.66,10.66,0,0,0,1-1.5c.4-.7.73-1.34,1-1.9a.23.23,0,0,1,.22-.15l.21.05a.43.43,0,0,1,.2.12,5.5,5.5,0,0,1,.2.74,6,6,0,0,0,1,2.9l.15.15a.18.18,0,0,1,0,.11.32.32,0,0,1-.08.22.35.35,0,0,1-.15.13,1,1,0,0,1-.31,0c-.06,0-.19-.14-.39-.41a7.48,7.48,0,0,1-.72-2.25A4.69,4.69,0,0,0,140.9,37.88Z"/>
              <path class="cls-2" d="M147,39.78c0,.27-.24.6-.72,1a2.32,2.32,0,0,1-1.48.58,1.28,1.28,0,0,1-1-.38,1.52,1.52,0,0,1-.35-1.06,3.6,3.6,0,0,1,.77-2.17,2.15,2.15,0,0,1,1.68-1,.66.66,0,0,1,.49.2.64.64,0,0,1,.19.47,1.64,1.64,0,0,1-.6,1.18,7.87,7.87,0,0,1-1.61,1.1.32.32,0,0,0-.21.28.72.72,0,0,0,.19.53.77.77,0,0,0,.57.2,2.52,2.52,0,0,0,1.75-.95.32.32,0,0,1,.2-.13C146.91,39.58,147,39.65,147,39.78Zm-2.77-.62c1.13-.67,1.69-1.21,1.69-1.61q0-.24-.21-.24a1.24,1.24,0,0,0-.83.53A3.15,3.15,0,0,0,144.18,39.16Z"/>
              <path class="cls-2" d="M150.8,38c-.25,0-.78.74-1.59,2.2a5.69,5.69,0,0,1-.48.8.72.72,0,0,1-.25.12,1.33,1.33,0,0,1-.3,0c-.18,0-.27-.35-.27-1a15.69,15.69,0,0,1,.26-2.12,7.81,7.81,0,0,0,.1-.89c0-.18.08-.26.23-.26q.45,0,.45.63a8.84,8.84,0,0,1-.15,1.18c-.12.66-.17,1.06-.18,1.21a5.52,5.52,0,0,0,.73-1,7.51,7.51,0,0,1,1-1.41,1,1,0,0,1,.66-.29c.17,0,.31.11.41.34a5.37,5.37,0,0,1,.19,1.66,1.5,1.5,0,0,0,.06.49c0,.1.06.15.08.15s.39-.42.81-1.27a4.73,4.73,0,0,1,.65-1,1,1,0,0,1,.7-.35.48.48,0,0,1,.47.34,3.49,3.49,0,0,1,.22,1,9.71,9.71,0,0,0,.18,1.21.94.94,0,0,0,.46.71c.15.07.23.16.23.25a.43.43,0,0,1-.19.29.61.61,0,0,1-.35.15.68.68,0,0,1-.57-.39A4.33,4.33,0,0,1,154,39c0-.35-.08-.6-.11-.75s-.09-.22-.16-.22-.25.11-.4.32a14.82,14.82,0,0,0-.74,1.3,8.18,8.18,0,0,1-.6,1,.57.57,0,0,1-.4.26.44.44,0,0,1-.31-.14.65.65,0,0,1-.17-.33c0-.13-.05-.45-.07-.95A4,4,0,0,0,150.8,38Z"/>
            </g>
          </g>
          <path class="cls-10" d="M156.61,24.51c-.75-4.76-3.26-8.41-8.26-8.41-5.92,0-8.73,5.24-8.73,11.85a19.3,19.3,0,0,0,.71,5.3A13.3,13.3,0,0,0,141,35c1.67-.2,3.44-.35,5.31-.44-.85-1.21-1.31-3.39-1.29-6.6,0-5.31,1.3-7.81,3.27-7.81,2.15,0,3.24,2.68,3.24,7.74,0,3.12-.4,5.3-1.17,6.55h2.12c.92,0,1.87,0,2.84,0l.43,0a17.76,17.76,0,0,0,1.13-6.68A20.73,20.73,0,0,0,156.61,24.51Z"/>
        </g>
        <g>
          <path class="cls-3" d="M162.83,8.63c0-.05-.22,0-.16.1S162.89,8.72,162.83,8.63Z"/>
          <path class="cls-3" d="M158.43,5.16s-.15,0-.11.09S158.48,5.22,158.43,5.16Z"/>
          <path class="cls-3" d="M154.47,12.84c0-.06-.07-.12-.1,0S154.43,13,154.47,12.84Z"/>
          <path class="cls-3" d="M161.28,19.16c.43-.36.85-.75,1.28-1.11l-.05-.19-1-.36c-.16.13-.33.27-.48.41.17.1-.06.14-.09.33a1.39,1.39,0,0,0-1.19,1.34.5.5,0,0,0-.63.1q.19.46.36,1v-.08c0,.27.43,0,.49-.1a1.33,1.33,0,0,0,.12-.44c.14-.13.42,0,.53-.21s0-.35.12-.44.39.09.39-.13c-.14,0-.06-.34.09-.33S161.17,19.13,161.28,19.16Zm-1.77,1.29c-.14-.07,0-.29,0-.46C159.82,20.17,159.6,20.18,159.51,20.45Zm.64-1.48c-.44.17.37-.29,0,0Zm.35.45c0-.07.12-.11.14-.08S160.52,19.46,160.5,19.42Z"/>
          <path class="cls-3" d="M161.86,17.25l.66.11.09.65-.05,0,.41,1.66,1.18-1.53,2.06.07L165,16.43l.75-2.24-2,.72-1.49-1.24,0,1.91-2.2,1.4,1.45.52a3.88,3.88,0,0,1,.31-.26Zm.67-1,.08-1.61,1.27,1.06,1.1-.42-.37,1.19.61,1-1.16-.07-1,1.31-.43-1.56-1-.34Z"/>
          <path class="cls-3" d="M165.12,6.39c-.19.16-.38.34-.57.52.22.11-.07.17-.1.4A1.68,1.68,0,0,0,163,9c-.64-.23-1,.18-.88.64-.63-.31-.69.53-.91.78s-.49.1-.54.43c-.36-.05.13.28-.14.54-.23-.38-.53.07-.67.41.34.06.25.38.44.54-.17.17-.31.38-.64.27,0-.22.13-.47-.17-.47,0,.63-.54.5-.78.8a.63.63,0,0,1,.14.61c-.2-.34-.61,0-.78.24.31,0,.79-.39.81.2-.63-.3-.53.32-1-.1-.18.33-.3.77-.64.84.11.43.66-.2.68.17a1,1,0,0,1-.37.34c-.17-.05-.15-.22-.37-.24,0,.49-.59.49-.7.73l.26.28c.33,0,.48-.36.74-.5-.15,0-.33-.15-.1-.17.58.1-.35,1,.4.68-.21-.19.41-.59.71-.54.25-.56-.09-.92.41-1,0,.16-.12.38,0,.44,0-.22.19-.31.24-.37s.06-.37.1-.41.34-.15.5-.3A3,3,0,0,0,161,12c.13-.35-.61.23-.34-.37.18.31.44-.06.64.3,0-.39.35-.19.51-.3.25-.67.18-1,.47-1.32q-.15.44.3.51c.2-.4.16-.24.17-.68.06.33.54,0,.61-.13a1.79,1.79,0,0,0,.13-.54c.17-.17.51-.06.65-.27s0-.44.13-.54.48.09.47-.17c-.17,0-.08-.42.1-.41,0,.12-.06.27.07.31.52-.46,1-.94,1.54-1.39l-.06-.23Zm-7.28,9c-.05-.08.14-.14.17-.1S157.87,15.46,157.84,15.41Zm.27-1.08c-.06.15-.15,0-.13,0S158.13,14.26,158.11,14.33Zm1.25-.4c-.44,0-.16-.36-.13-.61A.64.64,0,0,1,159.36,13.93Zm.81-.95c0-.08.14-.15.17-.1S160.2,13,160.17,13Zm1.35-2a.83.83,0,0,0,.27-.51C162,10.54,161.84,11.33,161.52,11Zm.23-.95c-.05-.09.15-.15.17-.1S161.78,10.13,161.75,10.08Zm1,0c-.18-.09,0-.37,0-.58C163.13,9.69,162.87,9.71,162.77,10.05Zm.74-1.83c-.54.22.44-.37,0,0Zm.44.54c-.06-.08.14-.14.17-.1S164,8.81,164,8.76Z"/>
          <path class="cls-3" d="M165.12,6.39l.38-.33h.05l.82.13.12.79-.06,0,.54,2,1.4-1.9,2.52,0L169.38,5l.87-2.75-2.39.93L166,1.7V4l-2.66,1.76Zm1.24-1.54,0-2L168,4.14l1.34-.54-.42,1.47.77,1.18-1.42-.06-1.2,1.63-.55-1.89-1.22-.39Z"/>
          <path class="cls-3" d="M155,10.72a1.48,1.48,0,0,1,0,.7C155.53,11.43,155.38,10.78,155,10.72Z"/>
          <path class="cls-3" d="M166.25,24c0-.05-.19,0-.16.05S166.28,24.12,166.25,24Z"/>
          <path class="cls-3" d="M159.59,19.3s-.18,0-.14.08S159.63,19.37,159.59,19.3Z"/>
          <path class="cls-3" d="M157.42,16.72a.58.58,0,0,0-.25-.9c0,.21,0,.38,0,.59S157.34,16.61,157.42,16.72Z"/>
          <path class="cls-3" d="M160.14,3.13l.59,0c.05.18.09.36.15.54l0,.05.55,1.38.83-1.46L164,3.47l-1.26-1.42.39-2-1.62.86L160.09,0l.2,1.65-1.73,1.46,1.31.28.23-.27Zm.46-.94L160.47.8l1.22.76.9-.5-.17,1.07.64.78-1,.07-.71,1.25L160.79,3l-.89-.18Z"/>
          <path class="cls-3" d="M161.17,32.45s-.15,0-.13,0S161.2,32.52,161.17,32.45Z"/>
          <path class="cls-3" d="M168.69,22.61c-.2.11-.4.21-.6.33.16.14-.09.13-.17.32a1.49,1.49,0,0,0-1.57,1.11c-.5-.34-.86-.05-.89.36-.46-.4-.7.3-.94.47s-.44,0-.56.25c-.29-.12,0,.27-.23.44-.11-.38-.48-.06-.66.2.28.12.13.38.25.55-.17.11-.34.26-.6.09.08-.17.21-.36,0-.44-.18.54-.57.32-.84.53a.54.54,0,0,1,0,.55c-.1-.34-.51-.17-.71,0,.26.06.75-.17.65.35-.48-.4-.53.16-.82-.3-.12.13-.23.28-.35.4s0,.23,0,.35.2,0,.17.12a1.09,1.09,0,0,1-.17.13c0,.08,0,.16,0,.24s.11,0,.12,0-.06.09-.12.08a1.62,1.62,0,0,1,0,.22.8.8,0,0,1,.56-.06c.33-.43.11-.8.57-.81-.05.14-.18.3-.07.38,0-.19.24-.22.29-.26s.13-.3.17-.33.33-.06.5-.15a2.63,2.63,0,0,0,1.35-1.22c.19-.27-.57.06-.21-.39.08.3.39,0,.48.4.09-.33.34-.09.5-.15.36-.51.37-.83.69-1-.15.23-.1.4.15.5.25-.29.19-.16.29-.54,0,.29.47.08.55,0a2.07,2.07,0,0,0,.23-.43c.18-.11.45.06.61-.1s.11-.36.23-.43.39.19.44,0c-.14-.08,0-.37.17-.33,0,.1-.11.22,0,.28.54-.28,1.08-.59,1.62-.85v-.22ZM161,27.89c-.08.11-.14,0-.1-.06S161,27.83,161,27.89Zm1.16-.08c-.38-.06-.06-.34,0-.54A.55.55,0,0,1,162.14,27.81Zm.89-.63c0-.08.16-.09.17-.05S163.05,27.23,163,27.18Zm1.58-1.38a.66.66,0,0,0,.34-.37C165.16,25.49,164.82,26.14,164.61,25.8ZM165,25c0-.08.15-.09.16-.05S165,25.09,165,25Zm.87.19c-.13-.11.05-.31.12-.49C166.28,25,166.05,25,165.89,25.23Zm1-1.39c-.51.06.45-.22,0,0Zm.25.55c0-.08.16-.09.17-.05S167.19,24.44,167.17,24.39Z"/>
          <path class="cls-3" d="M174,20.19l-2.25.27-1.26-1.66-.5,2-2.65.93,1.38.89.4-.19,0,0,.67.29c0,.23-.05.46-.07.69l-.06,0,0,1.84L171.31,24l2.14.58-.82-2.21Zm-2.56,2.94L170,24.26,170,22.52l-1-.6,1.07-.36.47-1.67,1.07,1.43,1.26-.18-.67,1.16.4,1.18Z"/>
          <path class="cls-3" d="M163.2,31.33l-.5.25c.13.12-.08.1-.15.26a1.22,1.22,0,0,0-1.3.89c-.4-.29-.7-.06-.73.28a.3.3,0,0,0-.46,0c-.06.28-.12.55-.2.82a.63.63,0,0,0,.23-.27c.15,0-.08.49-.25.34l-.12.45a.38.38,0,0,0,.15,0c.3-.41.31-.67.58-.83-.12.18-.09.32.11.41.22-.23.16-.13.25-.44,0,.24.38.07.45,0a1.57,1.57,0,0,0,.19-.35c.15-.09.37.05.5-.07s.1-.3.2-.35.32.16.36,0,0-.3.15-.26c0,.08-.1.17,0,.22.44-.22.88-.46,1.33-.67v-.17Zm-3,1.93c0-.07.12-.08.13,0S160.16,33.3,160.15,33.26Zm.71.17c-.1-.1,0-.26.11-.4C161.18,33.25,161,33.21,160.86,33.43Zm.86-1.13c-.41.05.38-.18,0,0Zm.21.46c0-.07.12-.08.13,0S161.94,32.8,161.93,32.76Z"/>
          <path class="cls-3" d="M165.71,29.61l-1-1.38-.44,1.63-2.18.71,1.12.76.32-.16,0,0,.55.24c0,.19,0,.38-.07.57L164,32v1.51l1.34-1.06,1.75.51-.64-1.82,1.13-1.74Zm.67,2.49-1-.31-1.14.9,0-1.42-.77-.51.88-.27.41-1.36.85,1.18,1-.12-.57.94Z"/>
          <path class="cls-3" d="M154.33,12.32c.62,0,.45-.27.69-.71-.12-.23-.36-.37-.31-.73.3,0,.37-.3.56-.43-.11,0-.24-.08-.09-.11.42,0-.16.74.35.44-.17-.12.23-.45.45-.44.13-.42-.14-.64.2-.77,0,.11-.05.27.06.3,0-.15.11-.23.13-.28s0-.26,0-.29.23-.14.33-.26a2.16,2.16,0,0,0,.67-1.31c.06-.26-.41.21-.27-.24.15.21.3-.08.48.16,0-.27.22-.16.33-.25.12-.49,0-.73.22-1,0,.21,0,.32.26.33.11-.3.09-.18.06-.49.07.22.37-.08.42-.15a1.65,1.65,0,0,0,.05-.39c.1-.13.35-.09.43-.25s0-.31.05-.39.35,0,.32-.16c-.13,0-.09-.29,0-.29s0,.19.07.21c.33-.37.64-.75,1-1.11l-.06-.16-.91-.19-.37.41c.17.06,0,.13,0,.3a1.19,1.19,0,0,0-.87,1.28c-.47-.11-.66.22-.56.53-.47-.16-.44.43-.58.63s-.33.11-.34.35c-.26,0,.11.19-.05.39-.2-.25-.38.1-.45.35.25,0,.21.25.36.34-.11.13-.19.29-.43.25,0-.16,0-.34-.16-.32,0,.45-.34.4-.48.63a.45.45,0,0,1,.15.42c-.17-.22-.44,0-.53.23.22,0,.52-.34.59.08-.48-.16-.36.27-.7,0-.11.24-.15.57-.38.65.11.29.44-.2.49.06a.79.79,0,0,1-.24.27c-.12,0-.12-.14-.28-.13,0,.44-.62.4-.39.74-.31-.12-.18.31-.35.36a.27.27,0,0,1,.27.23c-.31-.06-.44.11-.54.33C154.4,11.62,154.51,12,154.33,12.32Zm5-7.24c0,.06-.09.11-.11.08S159.32,5.05,159.34,5.08Zm-.47-.26c-.36.19.28-.3,0,0Zm-.41.94c.27.13.09.17,0,.41C158.37,6.12,158.45,5.91,158.46,5.76Zm-.56.43c0,.06-.08.12-.11.09S157.88,6.16,157.9,6.19Zm-.05.4c.18,0,.11.57-.15.37A.49.49,0,0,0,157.85,6.59ZM157,8.38s-.09.11-.11.08S157,8.35,157,8.38Zm-.75.4a.44.44,0,0,1,.14.42C156.12,9.26,156.28,9,156.28,8.78Zm-.8.8c0-.11.1,0,.1,0S155.47,9.63,155.48,9.58Zm.11.71c0,.06-.09.12-.11.08S155.56,10.26,155.59,10.29Zm-.86,1.29c-.19.17,0,.12,0,.39l-.2,0c0-.08,0-.09-.09-.11C154.51,11.76,154.47,11.48,154.73,11.58Z"/>
          <path class="cls-3" d="M153.74,13.05c-.14.08-.21.28-.32.4l.2.1.08-.21c.13,0,.07.19.18.22.13-.2.37-.28.46-.54-.34.11-.21-.58-.46-.25a2.85,2.85,0,0,1,.25.33c-.42.12-.47-.51-.22-.63s.21.2.3,0c-.31,0,0-.56-.44-.46,0,.42-.09.73-.4.75C153.45,13.12,153.62,12.82,153.74,13.05Z"/>
        </g>
      </g>
    </g>
  </g>
</svg>
